<?xml version="1.0" standalone="yes"?>
<svg xmlns="http://www.w3.org/2000/svg" width="469" height="342">
<path style="fill:#010101; stroke:none;" d="M0 0L0 342L469 342L469 0L0 0z"/>
<path style="fill:#13558b; stroke:none;" d="M25 120L25 157L49 157L49 140L94 140L94 120L25 120M111 120L111 221C133.084 221 162.314 225.691 182 213.532C208.964 196.877 207.922 144.246 182 127.549C162.512 114.996 133.037 120 111 120M216 120C216 140.905 214.85 162.203 216.83 183C217.664 191.758 217.754 200.102 222.363 207.999C233.957 227.864 280.548 226.732 291.651 206.996C297.303 196.95 297 184.164 297 173L297 120L277 120L277 174C277 183.106 276.638 193.314 268.957 199.606C258.055 208.535 242.392 202.703 238.105 190C231.209 169.567 236 141.383 236 120L216 120z"/>
<path style="fill:#59bbf1; stroke:none;" d="M309 221L329 221L348 120L328.738 121.028L322.8 146L309 221M361 137L381 137L384 120L364.6 121.028L361 137M399 120L380 221C390.737 221 398.442 222.954 399 210C405.617 215.625 407.242 220.948 417 220.999C426.659 221.05 436 220.902 443.999 214.61C467.979 195.746 465.492 132.781 424 147.549C419.458 149.165 415.635 151.91 412 155L419 120L399 120z"/>
<path style="fill:#010101; stroke:none;" d="M134 140L134 202C144.803 202 159.483 204.365 168.907 197.867C181.949 188.872 182.223 155.181 169.957 145.558C160.463 138.11 145.279 140 134 140z"/>
<path style="fill:#59bbf1; stroke:none;" d="M346 221L366 221L379 147L359.742 148.028L355.389 166L346 221M8 157L8 178L91 177L91 158L8 157z"/>
<path style="fill:#256fa5; stroke:none;" d="M26 157L26 158L49 158L26 157z"/>
<path style="fill:#3e94c9; stroke:none;" d="M49 157L49 158L91 158L91 177L26 177L26 178L92 178L92 157L49 157z"/>
<path style="fill:#010101; stroke:none;" d="M426 161.558C404.177 164.072 394.6 210.139 422 206.814C435.414 205.187 441.729 188.914 440.909 177C440.336 168.685 435.406 160.474 426 161.558z"/>
<path style="fill:#13558b; stroke:none;" d="M25 178L25 221L94 221L94 202L49 202L49 178L25 178z"/>
</svg>
