<?xml version="1.0" encoding="UTF-8"?>
<!DOCTYPE svg PUBLIC "-//W3C//DTD SVG 1.1//EN" "http://www.w3.org/Graphics/SVG/1.1/DTD/svg11.dtd">
<svg xmlns="http://www.w3.org/2000/svg" version="1.1" width="200px" height="60px" style="shape-rendering:geometricPrecision; text-rendering:geometricPrecision; image-rendering:optimizeQuality; fill-rule:evenodd; clip-rule:evenodd" xmlns:xlink="http://www.w3.org/1999/xlink">
<g><path style="opacity:0.84" fill="#12548b" d="M 30.5,24.5 C 27.1667,24.5 23.8333,24.5 20.5,24.5C 20.5,19.5 20.5,14.5 20.5,9.5C 29.5,9.5 38.5,9.5 47.5,9.5C 47.5,12.5 47.5,15.5 47.5,18.5C 41.8333,18.5 36.1667,18.5 30.5,18.5C 30.5,20.5 30.5,22.5 30.5,24.5 Z"/></g>
<g><path style="opacity:0.894" fill="#12548b" d="M 52.5,9.5 C 62.0919,8.92603 71.4253,10.0927 80.5,13C 85.7365,17.0367 88.0698,22.37 87.5,29C 88.0165,38.321 84.0165,44.6543 75.5,48C 67.8406,48.4997 60.1739,48.6664 52.5,48.5C 52.5,35.5 52.5,22.5 52.5,9.5 Z M 62.5,18.5 C 72.1403,16.298 77.4736,19.9647 78.5,29.5C 78.4001,32.9657 77.4001,36.1323 75.5,39C 71.3795,40.8985 67.0462,41.7319 62.5,41.5C 62.5,33.8333 62.5,26.1667 62.5,18.5 Z"/></g>
<g><path style="opacity:0.894" fill="#12548b" d="M 92.5,9.5 C 95.1667,9.5 97.8333,9.5 100.5,9.5C 100.109,19.233 100.609,28.8997 102,38.5C 104.961,41.6163 108.461,42.2829 112.5,40.5C 113.584,39.3349 114.417,38.0016 115,36.5C 115.5,27.5062 115.666,18.5062 115.5,9.5C 118.167,9.5 120.833,9.5 123.5,9.5C 123.931,20.5775 123.431,31.5775 122,42.5C 119.01,47.5499 114.51,49.8833 108.5,49.5C 104.265,49.0741 100.265,47.9074 96.5,46C 95.5399,44.5806 94.7065,43.0806 94,41.5C 92.5973,30.8977 92.0973,20.231 92.5,9.5 Z"/></g>
<g><path style="opacity:0.867" fill="#59bbf0" d="M 134.5,9.5 C 137.167,9.5 139.833,9.5 142.5,9.5C 140.599,22.9077 138.265,36.241 135.5,49.5C 132.833,49.5 130.167,49.5 127.5,49.5C 129.833,36.1667 132.167,22.8333 134.5,9.5 Z"/></g>
<g><path style="opacity:0.732" fill="#59bbf0" d="M 148.5,9.5 C 151.167,9.5 153.833,9.5 156.5,9.5C 156.167,12.1667 155.833,14.8333 155.5,17.5C 152.833,17.5 150.167,17.5 147.5,17.5C 147.401,14.7628 147.735,12.0961 148.5,9.5 Z"/></g>
<g><path style="opacity:0.871" fill="#59bbf0" d="M 161.5,9.5 C 164.167,9.5 166.833,9.5 169.5,9.5C 168.92,13.8789 168.42,18.2122 168,22.5C 174.395,17.9328 179.728,18.9328 184,25.5C 185.061,31.7243 184.394,37.7243 182,43.5C 176.18,49.5005 169.68,50.5005 162.5,46.5C 161.614,47.325 161.281,48.325 161.5,49.5C 159.167,49.5 156.833,49.5 154.5,49.5C 156.575,36.1246 158.908,22.7912 161.5,9.5 Z M 170.5,26.5 C 174.874,26.3718 177.208,28.5385 177.5,33C 176.735,39.7797 173.068,42.7797 166.5,42C 163.612,35.8174 164.946,30.6507 170.5,26.5 Z"/></g>
<g><path style="opacity:0.867" fill="#59bbf0" d="M 146.5,20.5 C 149.167,20.5 151.833,20.5 154.5,20.5C 152.941,30.187 151.274,39.8536 149.5,49.5C 146.833,49.5 144.167,49.5 141.5,49.5C 142.844,39.7693 144.511,30.1026 146.5,20.5 Z"/></g>
<g><path style="opacity:0.993" fill="#58baef" d="M 20.5,24.5 C 23.8333,24.5 27.1667,24.5 30.5,24.5C 35.5,24.5 40.5,24.5 45.5,24.5C 45.5,26.8333 45.5,29.1667 45.5,31.5C 37.3159,31.1743 29.3159,31.5076 21.5,32.5C 21.1667,32.5 20.8333,32.5 20.5,32.5C 18.5,32.5 16.5,32.5 14.5,32.5C 14.5,29.8333 14.5,27.1667 14.5,24.5C 16.5,24.5 18.5,24.5 20.5,24.5 Z"/></g>
<g><path style="opacity:0.937" fill="#48a2d8" d="M 45.5,24.5 C 46.4731,26.9479 46.8064,29.6146 46.5,32.5C 41.1667,32.5 35.8333,32.5 30.5,32.5C 27.5,32.5 24.5,32.5 21.5,32.5C 29.3159,31.5076 37.3159,31.1743 45.5,31.5C 45.5,29.1667 45.5,26.8333 45.5,24.5 Z"/></g>
<g><path style="opacity:0.922" fill="#12548b" d="M 20.5,32.5 C 20.8333,32.5 21.1667,32.5 21.5,32.5C 24.5,32.5 27.5,32.5 30.5,32.5C 30.5,35.5 30.5,38.5 30.5,41.5C 36.1667,41.5 41.8333,41.5 47.5,41.5C 47.5,43.8333 47.5,46.1667 47.5,48.5C 38.5,48.5 29.5,48.5 20.5,48.5C 20.5,43.1667 20.5,37.8333 20.5,32.5 Z"/></g>
</svg>
